<svg width="173" height="104" viewBox="0 0 173 104" fill="none" xmlns="http://www.w3.org/2000/svg">
<g filter="url(#filter0_d_723_3154)">
<rect x="32" y="28" width="40" height="40" rx="8" fill="url(#paint0_linear_723_3154)"/>
<path fill-rule="evenodd" clip-rule="evenodd" d="M59.9993 48.1078L58.3993 49.0996L58.3993 39.4003L58.4882 39.4003L59.9993 40.4452L59.9993 48.1078ZM57.6002 39.3999L57.6002 49.0879L46.4002 49.0879L46.4002 39.3999L57.6002 39.3999ZM45.5982 49.1122L45.5982 39.3999L45.5093 39.3999L43.9982 40.4448L43.9982 48.1074L45.5982 49.1122ZM53.9999 50.372L49.9999 50.372L49.9999 57.5002L50.9999 58.6006L52.9999 58.6006L53.9999 57.5002L53.9999 50.372ZM53.9993 38.2282L49.9993 38.2282L49.9993 37.7004L50.9993 36.6L52.9993 36.6L53.9993 37.7004L53.9993 38.2282Z" fill="#F6F6F7"/>
</g>
<path d="M103.863 39.248V56H100.503V48.872H93.3271V56H89.9671V39.248H93.3271V46.136H100.503V39.248H103.863ZM112.594 56.216C111.314 56.216 110.162 55.936 109.138 55.376C108.114 54.8 107.306 53.992 106.714 52.952C106.138 51.912 105.85 50.712 105.85 49.352C105.85 47.992 106.146 46.792 106.738 45.752C107.346 44.712 108.17 43.912 109.21 43.352C110.25 42.776 111.41 42.488 112.69 42.488C113.97 42.488 115.13 42.776 116.17 43.352C117.21 43.912 118.026 44.712 118.618 45.752C119.226 46.792 119.53 47.992 119.53 49.352C119.53 50.712 119.218 51.912 118.594 52.952C117.986 53.992 117.154 54.8 116.098 55.376C115.058 55.936 113.89 56.216 112.594 56.216ZM112.594 53.288C113.202 53.288 113.77 53.144 114.298 52.856C114.842 52.552 115.274 52.104 115.594 51.512C115.914 50.92 116.074 50.2 116.074 49.352C116.074 48.088 115.738 47.12 115.066 46.448C114.41 45.76 113.602 45.416 112.642 45.416C111.682 45.416 110.874 45.76 110.218 46.448C109.578 47.12 109.258 48.088 109.258 49.352C109.258 50.616 109.57 51.592 110.194 52.28C110.834 52.952 111.634 53.288 112.594 53.288ZM125.427 45.464V51.896C125.427 52.344 125.531 52.672 125.739 52.88C125.963 53.072 126.331 53.168 126.843 53.168H128.403V56H126.291C123.459 56 122.043 54.624 122.043 51.872V45.464H120.459V42.704H122.043V39.416H125.427V42.704H128.403V45.464H125.427ZM135.548 42.488C136.54 42.488 137.412 42.688 138.164 43.088C138.916 43.472 139.508 43.976 139.94 44.6V42.704H143.324V56.096C143.324 57.328 143.076 58.424 142.58 59.384C142.084 60.36 141.34 61.128 140.348 61.688C139.356 62.264 138.156 62.552 136.748 62.552C134.86 62.552 133.308 62.112 132.092 61.232C130.892 60.352 130.212 59.152 130.052 57.632H133.388C133.564 58.24 133.94 58.72 134.516 59.072C135.108 59.44 135.82 59.624 136.652 59.624C137.628 59.624 138.42 59.328 139.028 58.736C139.636 58.16 139.94 57.28 139.94 56.096V54.032C139.508 54.656 138.908 55.176 138.14 55.592C137.388 56.008 136.524 56.216 135.548 56.216C134.428 56.216 133.404 55.928 132.476 55.352C131.548 54.776 130.812 53.968 130.268 52.928C129.74 51.872 129.476 50.664 129.476 49.304C129.476 47.96 129.74 46.768 130.268 45.728C130.812 44.688 131.54 43.888 132.452 43.328C133.38 42.768 134.412 42.488 135.548 42.488ZM139.94 49.352C139.94 48.536 139.78 47.84 139.46 47.264C139.14 46.672 138.708 46.224 138.164 45.92C137.62 45.6 137.036 45.44 136.412 45.44C135.788 45.44 135.212 45.592 134.684 45.896C134.156 46.2 133.724 46.648 133.388 47.24C133.068 47.816 132.908 48.504 132.908 49.304C132.908 50.104 133.068 50.808 133.388 51.416C133.724 52.008 134.156 52.464 134.684 52.784C135.228 53.104 135.804 53.264 136.412 53.264C137.036 53.264 137.62 53.112 138.164 52.808C138.708 52.488 139.14 52.04 139.46 51.464C139.78 50.872 139.94 50.168 139.94 49.352ZM147.613 56.168C147.005 56.168 146.501 55.984 146.101 55.616C145.717 55.232 145.525 54.76 145.525 54.2C145.525 53.64 145.717 53.176 146.101 52.808C146.501 52.424 147.005 52.232 147.613 52.232C148.205 52.232 148.693 52.424 149.077 52.808C149.461 53.176 149.653 53.64 149.653 54.2C149.653 54.76 149.461 55.232 149.077 55.616C148.693 55.984 148.205 56.168 147.613 56.168ZM151.016 49.304C151.016 47.96 151.28 46.768 151.808 45.728C152.352 44.688 153.08 43.888 153.992 43.328C154.92 42.768 155.952 42.488 157.088 42.488C158.08 42.488 158.944 42.688 159.68 43.088C160.432 43.488 161.032 43.992 161.48 44.6V42.704H164.864V56H161.48V54.056C161.048 54.68 160.448 55.2 159.68 55.616C158.928 56.016 158.056 56.216 157.064 56.216C155.944 56.216 154.92 55.928 153.992 55.352C153.08 54.776 152.352 53.968 151.808 52.928C151.28 51.872 151.016 50.664 151.016 49.304ZM161.48 49.352C161.48 48.536 161.32 47.84 161 47.264C160.68 46.672 160.248 46.224 159.704 45.92C159.16 45.6 158.576 45.44 157.952 45.44C157.328 45.44 156.752 45.592 156.224 45.896C155.696 46.2 155.264 46.648 154.928 47.24C154.608 47.816 154.448 48.504 154.448 49.304C154.448 50.104 154.608 50.808 154.928 51.416C155.264 52.008 155.696 52.464 156.224 52.784C156.768 53.104 157.344 53.264 157.952 53.264C158.576 53.264 159.16 53.112 159.704 52.808C160.248 52.488 160.68 52.04 161 51.464C161.32 50.872 161.48 50.168 161.48 49.352ZM169.369 41.12C168.777 41.12 168.281 40.936 167.881 40.568C167.497 40.184 167.305 39.712 167.305 39.152C167.305 38.592 167.497 38.128 167.881 37.76C168.281 37.376 168.777 37.184 169.369 37.184C169.961 37.184 170.449 37.376 170.833 37.76C171.233 38.128 171.433 38.592 171.433 39.152C171.433 39.712 171.233 40.184 170.833 40.568C170.449 40.936 169.961 41.12 169.369 41.12ZM171.025 42.704V56H167.665V42.704H171.025Z" fill="#F1EFF5"/>
<defs>
<filter id="filter0_d_723_3154" x="0" y="0" width="104" height="104" filterUnits="userSpaceOnUse" color-interpolation-filters="sRGB">
<feFlood flood-opacity="0" result="BackgroundImageFix"/>
<feColorMatrix in="SourceAlpha" type="matrix" values="0 0 0 0 0 0 0 0 0 0 0 0 0 0 0 0 0 0 127 0" result="hardAlpha"/>
<feOffset dy="4"/>
<feGaussianBlur stdDeviation="16"/>
<feComposite in2="hardAlpha" operator="out"/>
<feColorMatrix type="matrix" values="0 0 0 0 0.691667 0 0 0 0 0.242083 0 0 0 0 0.662186 0 0 0 0.6 0"/>
<feBlend mode="normal" in2="BackgroundImageFix" result="effect1_dropShadow_723_3154"/>
<feBlend mode="normal" in="SourceGraphic" in2="effect1_dropShadow_723_3154" result="shape"/>
</filter>
<linearGradient id="paint0_linear_723_3154" x1="52" y1="28" x2="52" y2="68" gradientUnits="userSpaceOnUse">
<stop stop-color="#CC58C4"/>
<stop offset="1" stop-color="#B03EA9"/>
</linearGradient>
</defs>
</svg>
